<svg width="201" height="586" viewBox="0 0 201 586" fill="none" xmlns="http://www.w3.org/2000/svg">
<ellipse cx="26.8085" cy="25.641" rx="26.8085" ry="25.641" fill="#E5E5E5"/>
<ellipse cx="26.8085" cy="101.923" rx="26.8085" ry="25.641" fill="#E5E5E5"/>
<ellipse cx="26.8085" cy="178.205" rx="26.8085" ry="25.641" fill="#E5E5E5"/>
<ellipse cx="26.8085" cy="254.487" rx="26.8085" ry="25.641" fill="#E5E5E5"/>
<ellipse cx="26.8085" cy="330.769" rx="26.8085" ry="25.641" fill="#E5E5E5"/>
<ellipse cx="26.8085" cy="407.051" rx="26.8085" ry="25.641" fill="#E5E5E5"/>
<ellipse cx="26.8085" cy="483.333" rx="26.8085" ry="25.641" fill="#E5E5E5"/>
<ellipse cx="26.8085" cy="559.615" rx="26.8085" ry="25.641" fill="#E5E5E5"/>
<ellipse cx="101.872" cy="25.641" rx="26.8085" ry="25.641" fill="#E5E5E5"/>
<ellipse cx="101.872" cy="101.923" rx="26.8085" ry="25.641" fill="#E5E5E5"/>
<ellipse cx="101.872" cy="178.205" rx="26.8085" ry="25.641" fill="#E5E5E5"/>
<ellipse cx="101.872" cy="254.487" rx="26.8085" ry="25.641" fill="#E5E5E5"/>
<ellipse cx="101.872" cy="330.769" rx="26.8085" ry="25.641" fill="#E5E5E5"/>
<ellipse cx="101.872" cy="407.051" rx="26.8085" ry="25.641" fill="#E5E5E5"/>
<ellipse cx="101.872" cy="483.333" rx="26.8085" ry="25.641" fill="#E5E5E5"/>
<ellipse cx="101.872" cy="559.615" rx="26.8085" ry="25.641" fill="#E5E5E5"/>
<ellipse cx="176.936" cy="25.641" rx="26.8085" ry="25.641" fill="#E5E5E5"/>
<ellipse cx="176.936" cy="101.923" rx="26.8085" ry="25.641" fill="#E5E5E5"/>
<ellipse cx="176.936" cy="178.205" rx="26.8085" ry="25.641" fill="#E5E5E5"/>
<ellipse cx="176.936" cy="254.487" rx="26.8085" ry="25.641" fill="#E5E5E5"/>
<ellipse cx="176.936" cy="330.769" rx="26.8085" ry="25.641" fill="#E5E5E5"/>
<ellipse cx="176.936" cy="407.051" rx="26.8085" ry="25.641" fill="#E5E5E5"/>
<ellipse cx="176.936" cy="483.333" rx="26.8085" ry="25.641" fill="#E5E5E5"/>
<ellipse cx="176.936" cy="559.615" rx="26.8085" ry="25.641" fill="#E5E5E5"/>
</svg>
